# xmcd CD database file
#
# Track frame offsets:
#	150
#	15966
#	32437
#	52592
#	73356
#	89070
#	107931
#	123241
#	140663
#	152988
#	167798
#
# Disc length: 2501 seconds
#
# Revision: 0
# Processed by: cddbd v1.5.1PL2 Copyright (c) Steve Scherf et al.
# Submitted via: CDex 1.60beta1-cs1
#
DISCID=9109c30b
DTITLE=永井　真理子 - Sunny Side Up
DYEAR=2006
DGENRE=Pop
TTITLE0=Paper Plane
TTITLE1=空へつづく階段
TTITLE2=ミエナイアシタ
TTITLE3=Northbridge
TTITLE4=BlueのVespaで
TTITLE5=Story
TTITLE6=Train
TTITLE7=このこころ
TTITLE8=Fortune Smile On Me
TTITLE9=Small History Of Love
TTITLE10=ひかりの粒
EXTD=YEAR: 2006
EXTT0=
EXTT1=
EXTT2=
EXTT3=
EXTT4=
EXTT5=
EXTT6=
EXTT7=
EXTT8=
EXTT9=
EXTT10=
PLAYORDER=
